name C:\Users\antoi\Documents\MyRepositories\upper-imu-dc\Results\main_tracking\Case_82\kinematics.mot
datacolumns 10
datarows 28
range 7.88000000 8.15000000
endheader 
time	clav_prot	clav_elev	scapula_abduction	scapula_elevation	scapula_upward_rot	scapula_winging	plane_elv	shoulder_elv	axial_rot	
          7.88000000	        -52.32178421	        -17.67372667	          3.43655278	        -18.67729626	         99.54236219	          1.99615417	         -4.19497811	         42.01393328	         30.69187642	
          7.89000000	        -52.50757214	        -17.51508523	          3.15204534	        -18.56238193	         99.61540298	          1.72463729	         -4.88130576	         41.14461605	         31.49458981	
          7.90000000	        -52.69695384	        -17.35675015	          2.85064635	        -18.45138397	         99.67074799	          1.44844814	         -5.57273109	         40.27810241	         32.29894432	
          7.91000000	        -52.88986534	        -17.19858949	          2.53250438	        -18.34420326	         99.70835921	          1.16742265	         -6.26964325	         39.41569600	         33.10407608	
          7.92000000	        -53.08620760	        -17.04046975	          2.19779211	        -18.24074020	         99.72815269	          0.88141834	         -6.97227691	         38.55889993	         33.90902056	
          7.93000000	        -53.28583947	        -16.88226161	          1.84671417	        -18.14089974	         99.72999182	          0.59032465	         -7.68067169	         37.70940601	         34.71270650	
          7.94000000	        -53.48857339	        -16.72384717	          1.47951581	        -18.04459609	         99.71368848	          0.29407384	         -8.39463846	         36.86907015	         35.51395999	
          7.95000000	        -53.69417446	        -16.56512684	          1.09649284	        -17.95175521	         99.67901544	         -0.00734910	         -9.11374189	         36.03987201	         36.31151790	
          7.96000000	        -53.90236312	        -16.40602495	          0.69800141	        -17.86231476	         99.62572818	         -0.31389931	         -9.83730143	         35.22386046	         37.10405006	
          7.97000000	        -54.11282037	        -16.24649366	          0.28446535	        -17.77622243	         99.55359010	         -0.62546792	        -10.56440603	         34.42309028	         37.89018950	
          7.98000000	        -54.32519419	        -16.08651444	         -0.14362055	        -17.69343319	         99.46239504	         -0.94188152	        -11.29393675	         33.63955596	         38.66856713	
          7.99000000	        -54.53910597	        -15.92609663	         -0.58569206	        -17.61390579	         99.35198318	         -1.26290566	        -12.02459271	         32.87512830	         39.43784684	
          8.00000000	        -54.75415586	        -15.76527318	         -1.04111963	        -17.53759856	         99.22225051	         -1.58825095	        -12.75492096	         32.13149915	         40.19675397	
          8.01000000	        -54.96992561	        -15.60409580	         -1.50921198	        -17.46446568	         99.07315274	         -1.91757896	        -13.48334998	         31.41014003	         40.94409310	
          8.02000000	        -55.18597901	        -15.44262934	         -1.98921891	        -17.39445381	         98.90470463	         -2.25050761	        -14.20822351	         30.71227608	         41.67875798	
          8.03000000	        -55.40186059	        -15.28094485	         -2.48033307	        -17.32749820	         98.71697645	         -2.58661686	        -14.92783411	         30.03887434	         42.39973556	
          8.04000000	        -55.61709342	        -15.11911372	         -2.98169031	        -17.26351966	         98.51009031	         -2.92545273	        -15.64045649	         29.39064525	         43.10610467	
          8.05000000	        -55.83117817	        -14.95720320	         -3.49237148	        -17.20242252	         98.28421694	         -3.26653083	        -16.34437589	         28.76805298	         43.79703280	
          8.06000000	        -56.04359503	        -14.79527393	         -4.01140677	        -17.14409398	         98.03957495	         -3.60933982	        -17.03791283	         28.17133044	         44.47177015	
          8.07000000	        -56.25380695	        -14.63338278	         -4.53778026	        -17.08840703	         97.77643174	         -3.95334097	        -17.71944657	         27.60050011	         45.12964298	
          8.08000000	        -56.46126636	        -14.47158668	         -5.07043909	        -17.03522436	         97.49510507	         -4.29796939	        -18.38743412	         27.05539360	         45.77004791	
          8.09000000	        -56.66542444	        -14.30994786	         -5.60830688	        -16.98440345	         97.19596403	         -4.64263654	        -19.04042471	         26.53566909	         46.39244859	
          8.10000000	        -56.86574173	        -14.14853916	         -6.15029964	        -16.93580221	         96.87942842	         -4.98673409	        -19.67707181	         26.04082719	         46.99637327	
          8.11000000	        -57.06169847	        -13.98744851	         -6.69534286	        -16.88928425	         96.54596581	         -5.32963916	        -20.29614434	         25.57022617	         47.58141175	
          8.12000000	        -57.25280366	        -13.82678189	         -7.24238806	        -16.84472338	         96.19608577	         -5.67072059	        -20.89653776	         25.12309713	         48.14721121	
          8.13000000	        -57.43860226	        -13.66666492	         -7.79042855	        -16.80200745	         95.83033125	         -6.00934569	        -21.47728361	         24.69855843	         48.69347191	
          8.14000000	        -57.61868070	        -13.50724326	         -8.33851395	        -16.76104136	         95.44926718	         -6.34488715	        -22.03755669	         24.29562863	         49.21994399	
          8.15000000	        -57.79267030	        -13.34868190	         -8.88576317	        -16.72174944	         95.05346700	         -6.67672974	        -22.57667893	         23.91323744	         49.72642567	
